HIERARCHY
ROOT joint_Root
{
	OFFSET 0.0 0.0 0.0
	CHANNELS 6 Xposition Yposition Zposition Zrotation Xrotation Yrotation 
	JOINT Hips
	{
		OFFSET -17.1583 93.1646 452.98
		CHANNELS 6 Xposition Yposition Zposition Zrotation Xrotation Yrotation 
		JOINT Spine
		{
			OFFSET 15.7357 0.0 0.0
			CHANNELS 6 Xposition Yposition Zposition Zrotation Xrotation Yrotation 
			JOINT Chest
			{
				OFFSET 8.98455 -0.406207 0.0
				CHANNELS 6 Xposition Yposition Zposition Zrotation Xrotation Yrotation 
				JOINT Neck
				{
					OFFSET 16.3773 0.0 0.0
					CHANNELS 6 Xposition Yposition Zposition Zrotation Xrotation Yrotation 
					JOINT Head
					{
						OFFSET 6.45672 0.0 0.0
						CHANNELS 6 Xposition Yposition Zposition Zrotation Xrotation Yrotation 
						End Site
						{
							OFFSET 0.0 0.0 0.0
						}
					}
				}
				JOINT Shoulder_L
				{
					OFFSET 12.9942 -0.242716 4.98039
					CHANNELS 6 Xposition Yposition Zposition Zrotation Xrotation Yrotation 
					JOINT UpperArm_L
					{
						OFFSET 5.34809 0.0 0.0
						CHANNELS 6 Xposition Yposition Zposition Zrotation Xrotation Yrotation 
						JOINT LowerArm_L
						{
							OFFSET 24.3286 1.87007e-05 0.0
							CHANNELS 6 Xposition Yposition Zposition Zrotation Xrotation Yrotation 
							JOINT Hand_L
							{
								OFFSET 22.2916 0.0 0.0
								CHANNELS 6 Xposition Yposition Zposition Zrotation Xrotation Yrotation 
								End Site
								{
									OFFSET 0.0 0.0 0.0
								}
							}
						}
					}
				}
				JOINT Shoulder_R
				{
					OFFSET 12.9945 -0.242716 -4.98039
					CHANNELS 6 Xposition Yposition Zposition Zrotation Xrotation Yrotation 
					JOINT UpperArm_R
					{
						OFFSET -5.34813 0.0 0.0
						CHANNELS 6 Xposition Yposition Zposition Zrotation Xrotation Yrotation 
						JOINT LowerArm_R
						{
							OFFSET -24.3289 0.000322201 0.0
							CHANNELS 6 Xposition Yposition Zposition Zrotation Xrotation Yrotation 
							JOINT Hand_R
							{
								OFFSET -22.2915 -0.000108084 0.0
								CHANNELS 6 Xposition Yposition Zposition Zrotation Xrotation Yrotation 
								End Site
								{
									OFFSET 0.0 0.0 0.0
								}
							}
						}
					}
				}
			}
		}
		JOINT UpperLeg_L
		{
			OFFSET -2.19248 -6.46944 0.0
			CHANNELS 6 Xposition Yposition Zposition Zrotation Xrotation Yrotation 
			JOINT LowerLeg_L
			{
				OFFSET 39.0811 0.0 -1.23785e-05
				CHANNELS 6 Xposition Yposition Zposition Zrotation Xrotation Yrotation 
				JOINT Foot_L
				{
					OFFSET 40.9854 0.0 -1.26872e-05
					CHANNELS 6 Xposition Yposition Zposition Zrotation Xrotation Yrotation 
					JOINT Toes_L
					{
						OFFSET 11.7543 0.0 0.0
						CHANNELS 6 Xposition Yposition Zposition Zrotation Xrotation Yrotation 
						End Site
						{
							OFFSET 0.0 0.0 0.0
						}
					}
				}
			}
		}
		JOINT UpperLeg_R
		{
			OFFSET -2.19251 6.46944 0.0
			CHANNELS 6 Xposition Yposition Zposition Zrotation Xrotation Yrotation 
			JOINT LowerLeg_R
			{
				OFFSET -39.0811 -0.00228153 -0.0401928
				CHANNELS 6 Xposition Yposition Zposition Zrotation Xrotation Yrotation 
				JOINT Foot_R
				{
					OFFSET -40.9854 0.0 0.0
					CHANNELS 6 Xposition Yposition Zposition Zrotation Xrotation Yrotation 
					JOINT Toes_R
					{
						OFFSET -11.7543 0.0 0.0
						CHANNELS 6 Xposition Yposition Zposition Zrotation Xrotation Yrotation 
						End Site
						{
							OFFSET 0.0 0.0 0.0
						}
					}
				}
			}
		}
	}
}
MOTION
Frames:	4
Frame Time:	0.0333333
0.000000 0.000000 0.000000 0.000000 0.000000 -0.000000 0.299485 93.630700 -0.156287 90.629000 4.944370 -3.893530 15.735700 0.000005 -0.000001 69.804700 87.704000 -60.013900 8.984550 -0.406207 -0.000000 -3.166990 -2.514130 19.519600 16.377300 -0.000001 -0.000001 -4.187450 0.789154 6.312000 6.456720 -0.000001 -0.000000 -0.290882 0.551839 7.393340 12.994200 -0.242716 4.980390 -86.419600 -7.464340 -64.281700 5.348090 -0.000007 -0.000001 -30.720800 -56.069600 -63.801700 24.328600 0.000019 0.000005 0.000056 28.719200 -0.000003 22.291600 -0.000001 0.000005 50.820900 4.331510 19.303100 12.994500 -0.242716 -4.980390 89.753900 0.862269 -74.071600 -5.348130 -0.000001 -0.000004 -58.979900 0.185863 -3.270020 -24.328900 0.000322 -0.000009 2.134480 7.268930 -16.421000 -22.291500 -0.000108 -0.000004 8.631780 5.229990 1.955500 -2.192480 -6.469440 -0.000000 -176.023000 -6.078150 -2.317090 39.081100 -0.000007 -0.000012 -0.010143 0.083476 6.927810 40.985400 -0.000006 -0.000013 -6.014240 18.287400 -62.431100 11.754300 -0.000000 0.000003 -0.000421 0.174430 -9.501640 -2.192510 6.469440 -0.000001 174.495000 7.307700 -178.922000 -39.081100 -0.002282 -0.040193 0.007248 -0.052660 4.235100 -40.985400 0.000008 0.000006 -9.948740 2.231460 -63.992100 -11.754300 -0.000006 -0.000006 -0.010739 0.276747 -5.328340
0.000000 0.000000 0.000000 0.000000 0.000000 -0.000000 0.351900 93.625600 -0.146449 90.643000 4.905540 -3.860130 15.735700 0.000005 -0.000001 69.744000 87.710300 -59.972400 8.984550 -0.406207 -0.000000 -3.181230 -2.513740 19.480900 16.377300 -0.000001 -0.000001 -4.135710 0.857530 6.397260 6.456720 -0.000001 -0.000000 -0.290536 0.688288 7.300510 12.994200 -0.242716 4.980390 -86.421100 -7.451160 -64.252200 5.348090 -0.000007 -0.000001 -30.497700 -56.116900 -63.615600 24.328600 0.000019 0.000005 0.000054 28.650100 -0.000003 22.291600 -0.000001 0.000005 50.976300 4.332210 19.292100 12.994500 -0.242716 -4.980390 89.776000 0.785752 -74.089200 -5.348130 -0.000001 -0.000004 -58.967500 0.257491 -3.356850 -24.328900 0.000322 -0.000009 2.167660 7.243400 -16.717400 -22.291500 -0.000108 -0.000004 8.540210 5.232340 1.894820 -2.192480 -6.469440 -0.000000 -176.079000 -6.075470 -2.316890 39.081100 -0.000007 -0.000012 -0.010204 0.082637 7.038580 40.985400 -0.000006 -0.000013 -5.868090 18.271700 -62.556400 11.754300 -0.000000 0.000003 -0.000431 0.174596 -9.494910 -2.192510 6.469440 -0.000001 174.430000 7.381520 -178.940000 -39.081100 -0.002282 -0.040193 0.007319 -0.052217 4.348310 -40.985400 0.000008 0.000006 -10.042200 2.320740 -64.035700 -11.754300 -0.000006 -0.000006 -0.010931 0.278134 -5.271580
0.000000 0.000000 0.000000 0.000000 0.000000 -0.000000 0.399239 93.613500 -0.134418 90.636800 4.942160 -3.820160 15.735700 0.000005 -0.000001 69.549700 87.721400 -59.779300 8.984550 -0.406207 -0.000000 -3.206760 -2.522600 19.477900 16.377300 -0.000001 -0.000001 -4.094090 0.896512 6.531400 6.456720 -0.000001 -0.000000 -0.287020 0.790307 7.000150 12.994200 -0.242716 4.980390 -86.409400 -7.489420 -64.293000 5.348090 -0.000007 -0.000001 -30.396500 -56.200100 -63.441200 24.328600 0.000019 0.000005 0.000061 28.801700 -0.000003 22.291600 -0.000001 0.000005 50.944400 4.326960 19.373900 12.994500 -0.242716 -4.980390 89.801400 0.695436 -74.064200 -5.348130 -0.000001 -0.000004 -58.962400 0.279644 -3.487220 -24.328900 0.000322 -0.000009 2.233970 7.358320 -16.947500 -22.291500 -0.000108 -0.000004 8.737810 5.232570 1.888990 -2.192480 -6.469440 -0.000000 -176.114000 -6.074540 -2.391860 39.081100 -0.000007 -0.000012 -0.010258 0.080142 7.293340 40.985400 -0.000006 -0.000013 -5.594530 18.291700 -62.764800 11.754300 -0.000000 0.000003 -0.000237 0.171524 -9.619680 -2.192510 6.469440 -0.000001 174.408000 7.452130 -178.954000 -39.081100 -0.002282 -0.040193 0.007244 -0.049577 4.493670 -40.985400 0.000008 0.000006 -9.954590 2.355320 -64.121300 -11.754300 -0.000006 -0.000006 -0.010731 0.276685 -5.330880
0.000000 0.000000 0.000000 0.000000 0.000000 -0.000000 0.449988 93.601900 -0.093746 90.633200 4.978030 -3.737810 15.735700 0.000005 -0.000001 69.652600 87.717200 -59.886100 8.984550 -0.406207 -0.000000 -3.196720 -2.516610 19.470400 16.377300 -0.000001 -0.000001 -4.085850 0.849368 6.643790 6.456720 -0.000001 -0.000000 -0.226130 0.823400 6.689300 12.994200 -0.242716 4.980390 -86.403800 -7.504310 -64.302100 5.348090 -0.000007 -0.000001 -30.351200 -56.300600 -63.393400 24.328600 0.000019 0.000005 0.000057 28.675800 -0.000003 22.291600 -0.000001 0.000005 50.709400 4.324130 19.418000 12.994500 -0.242716 -4.980390 89.811700 0.659186 -74.058400 -5.348130 -0.000001 -0.000004 -58.909300 0.264416 -3.654640 -24.328900 0.000322 -0.000009 2.258820 7.386420 -17.064200 -22.291500 -0.000108 -0.000004 8.826470 5.233330 1.869290 -2.192480 -6.469440 -0.000000 -176.156000 -6.086710 -2.393240 39.081100 -0.000007 -0.000012 -0.010333 0.078038 7.542280 40.985400 -0.000006 -0.000013 -5.297920 18.312000 -63.078700 11.754300 -0.000000 0.000003 -0.000479 0.175338 -9.464750 -2.192510 6.469440 -0.000001 174.350000 7.483560 -178.824000 -39.081100 -0.002282 -0.040193 0.007218 -0.049291 4.489360 -40.985400 0.000008 0.000006 -10.042600 2.427340 -64.141600 -11.754300 -0.000006 -0.000006 -0.010794 0.277147 -5.312000
